Coordinates
version=1
nRows=54
nColumns=12
inDegrees=yes

Units are S.I. units (second, meters, Newtons, ...)
Angles are in degrees

endheader
time	SC_y	SC_z	SC_x	AC_y	AC_z	AC_x	GH_y	GH_z	GH_yy	EL_x	PS_y
       0.0              -16.87           11.2          46.56          30.64         -5.782         -7.032          113.6          57.07          128.3          59.64          145.1
   0.03378              -16.87           11.2          46.57          30.64         -5.781         -7.033          113.6          57.06          128.3          59.64          145.1
   0.06757              -16.87           11.2          46.57          30.64          -5.78         -7.034          113.6          57.06          128.2          59.65          145.1
    0.1013              -16.87           11.2          46.58          30.65         -5.779         -7.036          113.6          57.06          128.2          59.66          145.1
    0.1351              -16.87           11.2          46.58          30.65         -5.778         -7.037          113.6          57.05          128.2          59.67          145.1
    0.1689              -16.87           11.2          46.59          30.65         -5.776         -7.039          113.6          57.05          128.2          59.68          145.0
    0.2027              -16.87          11.19          46.59          30.66         -5.775          -7.04          113.6          57.04          128.2          59.69          145.0
    0.2365              -16.87          11.19           46.6          30.66         -5.774         -7.042          113.6          57.03          128.1           59.7          145.0
    0.2703              -16.87          11.19          46.61          30.67         -5.772         -7.044          113.6          57.03          128.1          59.71          145.0
     0.304              -16.87          11.19          46.62          30.67         -5.771         -7.046          113.6          57.02          128.1          59.72          145.0
    0.3378              -16.87          11.19          46.62          30.68         -5.769         -7.048          113.6          57.01          128.0          59.74          145.0
    0.3716              -16.87          11.18          46.63          30.68         -5.768          -7.05          113.6          57.01          128.0          59.75          145.0
    0.4054              -16.87          11.18          46.64          30.69         -5.766         -7.053          113.6           57.0          128.0          59.77          145.0
    0.4392              -16.87          11.18          46.65          30.69         -5.764         -7.056          113.6          56.99          127.9          59.78          145.0
     0.473              -16.87          11.18          46.67           30.7         -5.761         -7.058          113.6          56.98          127.9           59.8          145.0
    0.5067              -16.87          11.17          46.68          30.71         -5.759         -7.062          113.6          56.97          127.9          59.82          145.0
    0.5405              -16.87          11.17          46.69          30.72         -5.756         -7.065          113.6          56.95          127.8          59.84          145.0
    0.5743              -16.87          11.17          46.71          30.72         -5.753         -7.069          113.6          56.94          127.8          59.87          145.0
    0.6081              -16.87          11.16          46.72          30.73          -5.75         -7.073          113.6          56.93          127.7          59.89          145.0
    0.6419              -16.87          11.16          46.74          30.74         -5.747         -7.077          113.6          56.91          127.6          59.92          145.0
    0.6757              -16.87          11.15          46.76          30.76         -5.743         -7.082          113.6           56.9          127.6          59.95          145.0
    0.7094              -16.87          11.15          46.78          30.77         -5.739         -7.088          113.5          56.88          127.5          59.98          145.0
    0.7432              -16.87          11.14           46.8          30.78         -5.735         -7.094          113.5          56.86          127.4          60.02          144.9
     0.777              -16.87          11.14          46.83           30.8          -5.73           -7.1          113.5          56.83          127.3          60.06          144.9
    0.8108              -16.87          11.13          46.86          30.82         -5.724         -7.108          113.5          56.81          127.2          60.11          144.9
    0.8446              -16.87          11.12          46.89          30.83         -5.718         -7.116          113.5          56.78          127.1          60.16          144.9
    0.8784              -16.87          11.11          46.93          30.86         -5.711         -7.125          113.5          56.75          127.0          60.21          144.9
    0.9121              -16.87           11.1          46.97          30.88         -5.703         -7.135          113.5          56.71          126.8          60.28          144.9
    0.9459              -16.87          11.09          47.01          30.91         -5.694         -7.147          113.5          56.67          126.7          60.35          144.8
    0.9797              -16.87          11.08          47.06          30.94         -5.684          -7.16          113.5          56.63          126.5          60.43          144.8
     1.013              -16.87          11.06          47.12          30.97         -5.672         -7.175          113.4          56.58          126.3          60.53          144.8
     1.047              -16.87          11.05          47.19          31.01         -5.659         -7.193          113.4          56.52          126.0          60.63          144.7
     1.081              -16.87          11.03          47.27          31.06         -5.644         -7.213          113.4          56.45          125.7          60.76          144.7
     1.115              -16.87           11.0          47.36          31.12         -5.626         -7.236          113.4          56.37          125.4           60.9          144.7
     1.149              -16.87          10.98          47.47          31.18         -5.605         -7.264          113.3          56.28          125.0          61.07          144.6
     1.182              -16.87          10.95          47.59          31.25         -5.581         -7.296          113.3          56.17          124.6          61.27          144.5
     1.216              -16.87          10.91          47.74          31.34         -5.552         -7.334          113.2          56.04          124.1          61.51          144.5
      1.25              -16.87          10.87          47.92          31.45         -5.517          -7.38          113.2          55.88          123.4          61.79          144.4
     1.284              -16.87          10.81          48.14          31.58         -5.474         -7.435          113.1          55.69          122.6          62.13          144.3
     1.318              -16.88          10.75           48.4          31.74         -5.423         -7.503          113.0          55.46          121.7          62.55          144.1
     1.351              -16.88          10.67          48.73          31.93         -5.359         -7.586          112.9          55.17          120.5          63.07          144.0
     1.385              -16.88          10.56          49.14          32.18          -5.28         -7.691          112.8          54.82          119.1          63.71          143.8
     1.419              -16.88          10.44          49.65          32.48          -5.18         -7.822          112.6          54.37          117.2          64.52          143.5
     1.453              -16.88          10.28          50.31          32.87         -5.053         -7.989          112.4           53.8          114.9          65.56          143.2
     1.486              -16.88          10.07          51.14          33.37          -4.89         -8.202          112.2          53.07          111.9          66.88          142.7
      1.52              -16.89          9.803          52.21          34.01         -4.681         -8.477          111.8          52.13          108.1          68.57          142.2
     1.554              -16.89          9.464          53.58          34.83         -4.415         -8.827          111.4          50.94          103.2          70.74          141.5
     1.588               -16.9          9.037          55.31          35.86          -4.08         -9.267          110.8          49.43          97.07          73.47          140.6
     1.622              -16.91          8.518           57.4          37.12         -3.671         -9.804          110.2           47.6          89.59          76.78          139.6
     1.655              -16.91          7.915          59.84          38.57         -3.197         -10.43          109.4          45.47           80.9          80.63          138.3
     1.689              -16.92          7.263          62.47          40.14         -2.685          -11.1          108.6          43.17          71.51           84.8          137.0
     1.723              -16.93          6.611          65.11          41.72         -2.172         -11.77          107.7          40.87          62.11          88.96          135.7
     1.757              -16.94          6.008          67.54          43.17         -1.698         -12.39          107.0          38.75          53.43          92.81          134.4
     1.791              -16.95          5.489          69.64          44.43          -1.29         -12.93          106.3          36.91          45.94          96.13          133.4
